<svg id="Layer_1_1_" enable-background="new 0 0 64 64" height="512" viewBox="0 0 64 64" width="512" xmlns="http://www.w3.org/2000/svg"><path d="m41 25v-2.382l-1-.5-1 .5v2.382c0 .553-.447 1-1 1h-4c-.553 0-1-.447-1-1v-2.382l-1-.5-1 .5v2.382c0 .553-.447 1-1 1h-4c-.553 0-1-.447-1-1v-2.382l-1-.5-1 .5v2.382c0 .553-.447 1-1 1h-3v34h6v-9c0-3.859 3.141-7 7-7s7 3.141 7 7v9h6v-34h-3c-.553 0-1-.447-1-1zm-11 15c0 .553-.447 1-1 1h-6c-.553 0-1-.447-1-1v-8c0-.553.447-1 1-1h6c.553 0 1 .447 1 1zm12 0c0 .553-.447 1-1 1h-6c-.553 0-1-.447-1-1v-8c0-.553.447-1 1-1h6c.553 0 1 .447 1 1z"/><path d="m59 36c0 .553-.447 1-1 1h-3c-.553 0-1-.447-1-1v-3h-1v3c0 .553-.447 1-1 1h-3c-.553 0-1-.447-1-1v-3h-1v27h13v-27h-1zm-7 11h-2v-6h2zm6 0h-2v-6h2z"/><path d="m33 46.101v13.899h4v-9c0-2.414-1.721-4.434-4-4.899zm2 7.899h-1v-2h1z"/><path d="m24 33h4v6h-4z"/><path d="m36 33h4v6h-4z"/><path d="m16 36c0 .553-.447 1-1 1h-3c-.553 0-1-.447-1-1v-3h-1v3c0 .553-.447 1-1 1h-3c-.553 0-1-.447-1-1v-3h-1v27h13v-27h-1zm-8 11h-2v-6h2zm6 0h-2v-6h2z"/><path d="m27 51v9h4v-13.899c-2.279.465-4 2.485-4 4.899zm2 1h1v2h-1z"/><path d="m41 5v-3h-2v3h-6v-3h-2v3h-6v-3h-2v3l1.618 5h14.764z"/><path d="m37 24v-2c0-.379.214-.725.553-.895l1.447-.723v-8.382h-14v8.382l1.447.724c.339.169.553.515.553.894v2h2v-2c0-.379.214-.725.553-.895l2-1c.281-.141.613-.141.895 0l2 1c.338.17.552.516.552.895v2zm-8-7h-2v-2h2zm4 0h-2v-2h2zm2-2h2v2h-2z"/></svg>