<svg id="Capa_1" enable-background="new 0 0 512 512" height="512" viewBox="0 0 512 512" width="512" xmlns="http://www.w3.org/2000/svg"><path d="m453.933 241.742-15.849 17.726c-.79.884-1.148 2.072-.976 3.245l3.148 21.503c.093.637.339 1.243.717 1.765l13.219 18.274c.493.682.759 1.502.759 2.344v166.342h-397.902v-17.841c0-1.769 1.166-3.332 2.863-3.835 3.813-1.131 6.304-1.774 7.861-2.137 1.416-.33 2.534-1.407 2.929-2.805l4.088-14.477c.6-2.127-.638-4.337-2.766-4.937l-12.059-3.397c-1.725-.486-2.916-2.059-2.916-3.85v-271.655c0-.492.091-.979.267-1.438l11.086-28.776c.098-.254.169-.516.214-.785l2.872-17.347c.301-1.821-.683-3.612-2.382-4.334l-9.621-4.088c-1.477-.628-2.436-2.077-2.436-3.681v-48.633h397.903v200.151c0 .984-.363 1.933-1.019 2.666z" fill="#dbc8b1"/><path d="m454.952 38.925h-30.915v200.151c0 .983-.362 1.932-1.018 2.666l-15.849 17.726c-.79.884-1.148 2.072-.976 3.245l3.148 21.503c.093.637.339 1.243.717 1.765l13.219 18.274c.493.682.759 1.502.759 2.344v166.342h30.915v-166.342c0-.842-.266-1.662-.759-2.344l-13.219-18.274c-.378-.522-.624-1.127-.717-1.765l-3.148-21.503c-.172-1.173.186-2.361.976-3.245l15.849-17.726c.656-.733 1.018-1.682 1.018-2.666z" fill="#cfb799"/><path d="m475.5 3v45.509c0 1.657-1.344 3-3.001 3h-433.998c-1.105 0-2.001-.895-2.001-2v-9.518c0-.568.242-1.11.665-1.489l8.906-7.985c.258-.231.452-.526.562-.855l2.131-6.375c.24-.717.055-1.508-.479-2.044l-11.203-11.267c-.373-.375-.582-.882-.582-1.41v-6.566c0-1.105.896-2 2.001-2h433.998c1.657 0 3.001 1.343 3.001 3z" fill="#e6d9ca"/><path d="m444.585 0v51.509h27.915c1.657 0 3.001-1.343 3.001-3v-45.509c0-1.657-1.344-3-3.001-3z" fill="#dbc8b1"/><path d="m36.5 463.491v45.509c0 1.657 1.344 3 3.001 3h432.998c1.657 0 3.001-1.343 3.001-3v-8.072c0-.852-.363-1.664-.997-2.233l-8.377-7.511c-.387-.347-.678-.789-.843-1.282l-2.438-7.293 11.782-11.85c.559-.562.873-1.322.873-2.115v-5.154c0-1.657-1.344-3-3.001-3h-432.998c-1.657.001-3.001 1.344-3.001 3.001z" fill="#e6d9ca"/><path d="m472.499 460.491h-27.915v8.154c0 .793-.314 1.553-.873 2.115l-10.478 10.538c-.8.804-1.077 1.99-.718 3.066l1.852 5.539c.165.493.455.935.843 1.282l8.377 7.511c.635.569.997 1.381.997 2.233v11.071h27.915c1.657 0 3.001-1.343 3.001-3v-8.072c0-.852-.363-1.664-.997-2.233l-8.377-7.511c-.387-.347-.678-.789-.843-1.282l-2.438-7.293 11.782-11.85c.559-.562.873-1.322.873-2.115v-5.154c0-1.656-1.344-2.999-3.001-2.999z" fill="#dbc8b1"/></svg>