<svg height="512pt" viewBox="0 -34 512.00698 512" width="512pt" xmlns="http://www.w3.org/2000/svg"><path d="m110.941406 256.003906h34.132813c9.425781 0 17.066406 7.640625 17.066406 17.066406v42.667969c0 9.425781-7.640625 17.066407-17.066406 17.066407h-34.132813c-9.425781 0-17.066406-7.640626-17.066406-17.066407v-42.667969c0-9.425781 7.640625-17.066406 17.066406-17.066406zm0 0"/><path d="m307.207031 136.539062c-2.476562 0-4.832031-1.070312-6.453125-2.941406-1.625-1.871094-2.355468-4.355468-2.003906-6.804687l13.054688-91.394531-22.757813 23.894531-24.984375 71.527343c-1.007812 2.878907-3.472656 5-6.464844 5.566407-2.996094.570312-6.066406-.503907-8.058594-2.816407-1.988281-2.308593-2.59375-5.503906-1.585937-8.382812l12.566406-35.976562-61.386719 64.394531h287.136719l-64.851562-67.414063 13.355469 39.082032c1.519531 4.457031-.859376 9.304687-5.316407 10.828124-.898437.300782-1.839843.449219-2.785156.4375-3.648437-.003906-6.890625-2.324218-8.070313-5.777343l-25.207031-73.667969-22.820312-23.742188 13.347656 93.441407c.667969 4.664062-2.570313 8.988281-7.238281 9.660156-4.664063.667969-8.988282-2.570313-9.65625-7.238281l-16.675782-116.699219c-.582031-.574219-1.253906-1.042969-1.867187-1.582031-.507813-.292969-.980469-.640625-1.410156-1.039063-1.363281-1.550781-3.3125-2.457031-5.375-2.507812-2.074219-.078125-4.070313.789062-5.425781 2.363281l-4.175782 4.375-16.441406 115.089844c-.605469 4.203125-4.203125 7.324218-8.449219 7.324218zm0 0"/><path d="m8.539062 187.738281c2.265626 0 4.433594-.902343 6.035157-2.5l17.066406-17.066406c2.433594-2.433594 3.164063-6.09375 1.859375-9.277344-1.308594-3.183593-4.398438-5.269531-7.84375-5.289062h30.421875l38.007813-40.015625c2.101562-2.210938 5.222656-3.128906 8.1875-2.417969 2.964843.714844 5.320312 2.957031 6.183593 5.878906.867188 2.925781.105469 6.089844-1.996093 8.300781l-26.847657 28.253907h95.941407l99.71875-104.613281 46.507812-48.785157c-.65625 0-1.289062-.1953122-1.953125-.1953122h-34.558594l-48.148437 50.6796872c-2.082032 2.28125-5.234375 3.253906-8.242188 2.550782-3.007812-.707032-5.398437-2.980469-6.253906-5.949219-.855469-2.964844-.039062-6.164063 2.132812-8.359375l36.976563-38.92968775h-36.199219l-38.007812 40.01171875c-3.246094 3.417969-8.648438 3.554687-12.066406.308594-3.417969-3.246094-3.554688-8.648438-.308594-12.066407l26.847656-28.25390575h-2.695312c-11.496094-.05078125-22.542969 4.45703175-30.722657 12.53515575l-142.933593 141.066407c-2.273438-.015625-4.460938.882812-6.074219 2.488281l-17.066407 17.070312c-2.445312 2.4375-3.179687 6.113282-1.859374 9.304688 1.320312 3.191406 4.4375 5.269531 7.890624 5.269531zm185.816407-116.8125c2.097656-2.210937 5.21875-3.132812 8.183593-2.417969 2.964844.710938 5.324219 2.953126 6.1875 5.878907.863282 2.921875.101563 6.085937-2 8.296875l-50.671874 53.332031c-2.082032 2.28125-5.234376 3.253906-8.242188 2.550781-3.007812-.707031-5.398438-2.980468-6.253906-5.945312-.855469-2.96875-.039063-6.167969 2.132812-8.363282zm-69.863281 10.664063 20.265624-21.332032c2.085938-2.277343 5.238282-3.253906 8.242188-2.550781 3.007812.707031 5.398438 2.980469 6.253906 5.949219.855469 2.964844.039063 6.164062-2.132812 8.359375l-20.265625 21.335937c-2.082031 2.277344-5.238281 3.253907-8.242188 2.546876-3.007812-.703126-5.398437-2.976563-6.253906-5.945313s-.039063-6.164063 2.132813-8.363281zm0 0"/><path d="m480.375 168.171875 17.066406 17.066406c3.347656 3.234375 8.667969 3.1875 11.960938-.105469 3.292968-3.292968 3.339844-8.613281.105468-11.960937l-17.066406-17.066406c-3.351562-3.234375-8.671875-3.1875-11.964844.101562-3.289062 3.292969-3.335937 8.613281-.101562 11.964844zm0 0"/><path d="m503.472656 426.671875h-42.664062v-256h-25.601563v17.066406c0 4.710938-3.820312 8.53125-8.535156 8.53125-4.710937 0-8.53125-3.820312-8.53125-8.53125v-17.066406h-17.066406v17.066406c0 4.710938-3.820313 8.53125-8.535157 8.53125-4.710937 0-8.53125-3.820312-8.53125-8.53125v-17.066406h-17.066406v17.066406c0 4.710938-3.820312 8.53125-8.535156 8.53125-4.710938 0-8.53125-3.820312-8.53125-8.53125v-17.066406h-17.066406v17.066406c0 4.710938-3.820313 8.53125-8.535156 8.53125-4.710938 0-8.53125-3.820312-8.53125-8.53125v-17.066406h-17.070313v17.066406c0 4.710938-3.820313 8.53125-8.53125 8.53125-4.714844 0-8.535156-3.820312-8.535156-8.53125v-17.066406h-17.066407v17.066406c0 4.710938-3.820312 8.53125-8.53125 8.53125-4.714843 0-8.535156-3.820312-8.535156-8.53125v-17.066406h-25.597656v256h-17.066406v-256h-29.570313l-14.507812 21.800781c-2.613281 3.921875-7.914063 4.980469-11.832031 2.363282-3.921876-2.613282-4.980469-7.914063-2.367188-11.835938l8.203125-12.328125h-13.65625l-14.503906 21.800781c-1.691407 2.535156-4.609375 3.976563-7.652344 3.78125-3.042969-.195312-5.75-2.003906-7.097656-4.734375-1.351563-2.734375-1.140625-5.980469.550781-8.519531l8.226562-12.328125h-13.65625l-14.503906 21.800781c-1.695312 2.535156-4.609375 3.976563-7.652344 3.78125-3.042968-.195312-5.75-2.003906-7.101562-4.734375-1.347656-2.734375-1.140625-5.980469.554688-8.519531l8.222656-12.328125h-35.257813v256h-42.667969c-4.710937 0-8.5312495 3.820313-8.5312495 8.53125 0 4.714844 3.8203125 8.535156 8.5312495 8.535156h494.933594c4.714844 0 8.535156-3.820312 8.535156-8.535156 0-4.710937-3.820312-8.53125-8.535156-8.53125zm-426.664062-153.601563c0-18.851562 15.28125-34.132812 34.132812-34.132812h34.132813c18.851562 0 34.132812 15.28125 34.132812 34.132812v42.667969c0 18.851563-15.28125 34.132813-34.132812 34.132813h-34.132813c-18.851562 0-34.132812-15.28125-34.132812-34.132813zm307.199218 153.601563v-119.46875c0-23.5625-19.101562-42.664063-42.667968-42.664063-23.5625 0-42.667969 19.101563-42.667969 42.664063v119.46875h-17.066406v-119.46875c0-32.988281 26.746093-59.734375 59.734375-59.734375 32.992187 0 59.734375 26.746094 59.734375 59.734375v119.46875zm0 0"/></svg>